<svg xmlns="http://www.w3.org/2000/svg" width="1200" height="420" viewBox="0 0 1200 420">
      <rect width="100%" height="100%" fill="#0f1724" rx="18"/>
      <text x="78" y="28" fill="#e5eef9" font-size="20" font-weight="700">Likely airline prefixes</text>
      <text x="78" y="44" fill="#9aa7bd" font-size="14">Codes inferred from callsigns</text>
      <line x1="78" y1="324.0" x2="1176" y2="324.0" stroke="#223043" stroke-width="1"/><text x="68" y="328.0" text-anchor="end" fill="#9aa7bd" font-size="12">0</text><line x1="78" y1="257.5" x2="1176" y2="257.5" stroke="#223043" stroke-width="1"/><text x="68" y="261.5" text-anchor="end" fill="#9aa7bd" font-size="12">207,903</text><line x1="78" y1="191.0" x2="1176" y2="191.0" stroke="#223043" stroke-width="1"/><text x="68" y="195.0" text-anchor="end" fill="#9aa7bd" font-size="12">415,806</text><line x1="78" y1="124.5" x2="1176" y2="124.5" stroke="#223043" stroke-width="1"/><text x="68" y="128.5" text-anchor="end" fill="#9aa7bd" font-size="12">623,709</text><line x1="78" y1="58.0" x2="1176" y2="58.0" stroke="#223043" stroke-width="1"/><text x="68" y="62.0" text-anchor="end" fill="#9aa7bd" font-size="12">831,612</text>
      <rect x="89.0" y="58.0" width="69.5" height="266.0" rx="6" fill="#a78bfa" opacity="0.9"/><rect x="180.5" y="232.2" width="69.5" height="91.8" rx="6" fill="#a78bfa" opacity="0.9"/><rect x="272.0" y="294.4" width="69.5" height="29.6" rx="6" fill="#a78bfa" opacity="0.9"/><rect x="363.5" y="313.4" width="69.5" height="10.6" rx="6" fill="#a78bfa" opacity="0.9"/><rect x="455.0" y="314.4" width="69.5" height="9.6" rx="6" fill="#a78bfa" opacity="0.9"/><rect x="546.5" y="316.6" width="69.5" height="7.4" rx="6" fill="#a78bfa" opacity="0.9"/><rect x="638.0" y="317.6" width="69.5" height="6.4" rx="6" fill="#a78bfa" opacity="0.9"/><rect x="729.5" y="320.5" width="69.5" height="3.5" rx="6" fill="#a78bfa" opacity="0.9"/><rect x="821.0" y="320.8" width="69.5" height="3.2" rx="6" fill="#a78bfa" opacity="0.9"/><rect x="912.5" y="321.1" width="69.5" height="2.9" rx="6" fill="#a78bfa" opacity="0.9"/><rect x="1004.0" y="321.9" width="69.5" height="2.1" rx="6" fill="#a78bfa" opacity="0.9"/><rect x="1095.5" y="321.9" width="69.5" height="2.1" rx="6" fill="#a78bfa" opacity="0.9"/>
      <text x="123.8" y="392" text-anchor="middle" fill="#9aa7bd" font-size="12">IGO</text><text x="215.2" y="392" text-anchor="middle" fill="#9aa7bd" font-size="12">AIC</text><text x="306.8" y="392" text-anchor="middle" fill="#9aa7bd" font-size="12">UAE</text><text x="398.2" y="392" text-anchor="middle" fill="#9aa7bd" font-size="12">EK</text><text x="489.8" y="392" text-anchor="middle" fill="#9aa7bd" font-size="12">THY</text><text x="581.2" y="392" text-anchor="middle" fill="#9aa7bd" font-size="12">OMA</text><text x="672.8" y="392" text-anchor="middle" fill="#9aa7bd" font-size="12">THA</text><text x="764.2" y="392" text-anchor="middle" fill="#9aa7bd" font-size="12">BAW</text><text x="855.8" y="392" text-anchor="middle" fill="#9aa7bd" font-size="12">DLH</text><text x="947.2" y="392" text-anchor="middle" fill="#9aa7bd" font-size="12">AF</text><text x="1038.8" y="392" text-anchor="middle" fill="#9aa7bd" font-size="12">KLM</text><text x="1130.2" y="392" text-anchor="middle" fill="#9aa7bd" font-size="12">AFR</text>
    </svg>