<svg xmlns="http://www.w3.org/2000/svg" width="1200" height="420" viewBox="0 0 1200 420">
      <rect width="100%" height="100%" fill="#0f1724" rx="18"/>
      <text x="78" y="28" fill="#e5eef9" font-size="20" font-weight="700">Average speed by compass sector</text>
      <text x="78" y="44" fill="#9aa7bd" font-size="14">Direction from BOM</text>
      <line x1="78" y1="324.0" x2="1176" y2="324.0" stroke="#223043" stroke-width="1"/><text x="68" y="328.0" text-anchor="end" fill="#9aa7bd" font-size="12">0</text><line x1="78" y1="257.5" x2="1176" y2="257.5" stroke="#223043" stroke-width="1"/><text x="68" y="261.5" text-anchor="end" fill="#9aa7bd" font-size="12">112</text><line x1="78" y1="191.0" x2="1176" y2="191.0" stroke="#223043" stroke-width="1"/><text x="68" y="195.0" text-anchor="end" fill="#9aa7bd" font-size="12">224</text><line x1="78" y1="124.5" x2="1176" y2="124.5" stroke="#223043" stroke-width="1"/><text x="68" y="128.5" text-anchor="end" fill="#9aa7bd" font-size="12">336</text><line x1="78" y1="58.0" x2="1176" y2="58.0" stroke="#223043" stroke-width="1"/><text x="68" y="62.0" text-anchor="end" fill="#9aa7bd" font-size="12">448</text>
      <rect x="94.5" y="121.5" width="104.3" height="202.5" rx="6" fill="#f472b6" opacity="0.9"/><rect x="231.7" y="77.1" width="104.3" height="246.9" rx="6" fill="#f472b6" opacity="0.9"/><rect x="369.0" y="87.8" width="104.3" height="236.2" rx="6" fill="#f472b6" opacity="0.9"/><rect x="506.2" y="101.1" width="104.3" height="222.9" rx="6" fill="#f472b6" opacity="0.9"/><rect x="643.5" y="84.9" width="104.3" height="239.1" rx="6" fill="#f472b6" opacity="0.9"/><rect x="780.7" y="81.0" width="104.3" height="243.0" rx="6" fill="#f472b6" opacity="0.9"/><rect x="918.0" y="75.1" width="104.3" height="248.9" rx="6" fill="#f472b6" opacity="0.9"/><rect x="1055.2" y="58.0" width="104.3" height="266.0" rx="6" fill="#f472b6" opacity="0.9"/>
      <text x="146.6" y="392" text-anchor="middle" fill="#9aa7bd" font-size="12">N</text><text x="283.9" y="392" text-anchor="middle" fill="#9aa7bd" font-size="12">NE</text><text x="421.1" y="392" text-anchor="middle" fill="#9aa7bd" font-size="12">E</text><text x="558.4" y="392" text-anchor="middle" fill="#9aa7bd" font-size="12">SE</text><text x="695.6" y="392" text-anchor="middle" fill="#9aa7bd" font-size="12">S</text><text x="832.9" y="392" text-anchor="middle" fill="#9aa7bd" font-size="12">SW</text><text x="970.1" y="392" text-anchor="middle" fill="#9aa7bd" font-size="12">W</text><text x="1107.4" y="392" text-anchor="middle" fill="#9aa7bd" font-size="12">NW</text>
    </svg>