<svg xmlns="http://www.w3.org/2000/svg" width="1200" height="420" viewBox="0 0 1200 420">
      <rect width="100%" height="100%" fill="#0f1724" rx="18"/>
      <text x="78" y="28" fill="#e5eef9" font-size="20" font-weight="700">Vertical motion phases</text>
      <text x="78" y="44" fill="#9aa7bd" font-size="14">Climb and descent states</text>
      <line x1="78" y1="324.0" x2="1176" y2="324.0" stroke="#223043" stroke-width="1"/><text x="68" y="328.0" text-anchor="end" fill="#9aa7bd" font-size="12">0</text><line x1="78" y1="257.5" x2="1176" y2="257.5" stroke="#223043" stroke-width="1"/><text x="68" y="261.5" text-anchor="end" fill="#9aa7bd" font-size="12">354,534</text><line x1="78" y1="191.0" x2="1176" y2="191.0" stroke="#223043" stroke-width="1"/><text x="68" y="195.0" text-anchor="end" fill="#9aa7bd" font-size="12">709,068</text><line x1="78" y1="124.5" x2="1176" y2="124.5" stroke="#223043" stroke-width="1"/><text x="68" y="128.5" text-anchor="end" fill="#9aa7bd" font-size="12">1,063,602</text><line x1="78" y1="58.0" x2="1176" y2="58.0" stroke="#223043" stroke-width="1"/><text x="68" y="62.0" text-anchor="end" fill="#9aa7bd" font-size="12">1,418,137</text>
      <rect x="104.4" y="227.4" width="166.9" height="96.6" rx="6" fill="#f97316" opacity="0.9"/><rect x="324.0" y="309.5" width="166.9" height="14.5" rx="6" fill="#f97316" opacity="0.9"/><rect x="543.6" y="58.0" width="166.9" height="266.0" rx="6" fill="#f97316" opacity="0.9"/><rect x="763.2" y="311.4" width="166.9" height="12.6" rx="6" fill="#f97316" opacity="0.9"/><rect x="982.8" y="242.8" width="166.9" height="81.2" rx="6" fill="#f97316" opacity="0.9"/>
      <text x="187.8" y="392" text-anchor="middle" fill="#9aa7bd" font-size="12">Strong descent</text><text x="407.4" y="392" text-anchor="middle" fill="#9aa7bd" font-size="12">Descent</text><text x="627.0" y="392" text-anchor="middle" fill="#9aa7bd" font-size="12">Level</text><text x="846.6" y="392" text-anchor="middle" fill="#9aa7bd" font-size="12">Climb</text><text x="1066.2" y="392" text-anchor="middle" fill="#9aa7bd" font-size="12">Strong climb</text>
    </svg>